<?xml version="1.0" encoding="UTF-8" standalone="no"?>
<svg
   xmlns:dc="http://purl.org/dc/elements/1.1/"
   xmlns:cc="http://creativecommons.org/ns#"
   xmlns:rdf="http://www.w3.org/1999/02/22-rdf-syntax-ns#"
   xmlns:svg="http://www.w3.org/2000/svg"
   xmlns="http://www.w3.org/2000/svg"
   version="1.1"
   id="svg12322"
   viewBox="0 0 1000 440.00001"
   height="440"
   width="1000">
  <defs
     id="defs12324" />
  <metadata
     id="metadata12327">
    <rdf:RDF>
      <cc:Work
         rdf:about="">
        <dc:format>image/svg+xml</dc:format>
        <dc:type
           rdf:resource="http://purl.org/dc/dcmitype/StillImage" />
        <dc:title></dc:title>
      </cc:Work>
    </rdf:RDF>
  </metadata>
  <g
     transform="translate(0,-612.36216)"
     id="layer1">
    <g
       transform="matrix(8.6056867,0,0,-8.6056867,370.89794,651.66385)"
       id="g26">
      <path
         id="path28"
         style="fill:#000000;fill-opacity:1;fill-rule:nonzero;stroke:none"
         d="m 0,0 -6.981,0 -5.667,-18.03 c 2.061,-1.019 4.021,-2.211 5.864,-3.555 L 0,0 Z" />
    </g>
    <g
       transform="matrix(8.6056867,0,0,-8.6056867,225.06252,924.5235)"
       id="g30">
      <path
         id="path32"
         style="fill:#1b75bc;fill-opacity:1;fill-rule:nonzero;stroke:none"
         d="M 0,0 6.981,0 8.958,6.292 C 7.105,7.611 5.142,8.785 3.073,9.779 L 0,0 Z" />
    </g>
    <g
       transform="matrix(8.6056867,0,0,-8.6056867,302.15572,870.37908)"
       id="g34">
      <path
         id="path36"
         style="fill:#00aeef;fill-opacity:1;fill-rule:nonzero;stroke:none"
         d="M 0,0 0.592,1.884 C -1.25,3.229 -3.21,4.421 -5.271,5.441 L -5.885,3.487 C -3.817,2.494 -1.853,1.319 0,0" />
    </g>
    <g
       transform="matrix(8.6056867,0,0,-8.6056867,150.71973,773.7605)"
       id="g38">
      <path
         id="path40"
         style="fill:#000000;fill-opacity:1;fill-rule:nonzero;stroke:none"
         d="m 0,0 4.459,14.188 -6.981,0 L -6.905,0.244 C -6.213,0.28 -5.518,0.298 -4.817,0.298 -3.186,0.298 -1.581,0.19 0,0" />
    </g>
    <g
       transform="matrix(8.6056867,0,0,-8.6056867,139.7819,808.56015)"
       id="g42">
      <path
         id="path44"
         style="fill:#00aeef;fill-opacity:1;fill-rule:nonzero;stroke:none"
         d="m 0,0 0.662,2.107 c -1.586,0.19 -3.199,0.3 -4.837,0.3 -0.693,0 -1.382,-0.017 -2.066,-0.052 L -6.934,0.15 c 0.849,0.054 1.703,0.091 2.566,0.091 C -2.891,0.241 -1.436,0.155 0,0" />
    </g>
    <g
       transform="matrix(8.6056867,0,0,-8.6056867,103.3351,924.5235)"
       id="g46">
      <path
         id="path48"
         style="fill:#1b75bc;fill-opacity:1;fill-rule:nonzero;stroke:none"
         d="m 0,0 4.235,13.475 c -1.435,0.155 -2.891,0.241 -4.368,0.241 -0.863,0 -1.717,-0.037 -2.566,-0.091 L -6.981,0 0,0 Z" />
    </g>
    <g
       transform="matrix(8.6056867,0,0,-8.6056867,312.56947,878.06743)"
       id="g50">
      <path
         id="path52"
         style="fill:#1b75bc;fill-opacity:1;fill-rule:nonzero;stroke:none"
         d="m 0,0 -1.696,-5.398 6.98,0 0.124,0.392 C 3.764,-3.177 1.952,-1.502 0,0" />
    </g>
    <g
       transform="matrix(8.6056867,0,0,-8.6056867,359.10815,921.15185)"
       id="g54">
      <path
         id="path56"
         style="fill:#00aeef;fill-opacity:1;fill-rule:nonzero;stroke:none"
         d="M 0,0 0.551,1.753 C -1.079,3.619 -2.878,5.33 -4.823,6.866 L -5.408,5.006 C -3.456,3.504 -1.644,1.83 0,0" />
    </g>
    <g
       transform="matrix(8.6056867,0,0,-8.6056867,369.1269,889.26175)"
       id="g58">
      <path
         id="path60"
         style="fill:#000000;fill-opacity:1;fill-rule:nonzero;stroke:none"
         d="m 0,0 8.678,27.609 -6.982,0 L -5.376,5.108 C -3.429,3.573 -1.631,1.864 0,0" />
    </g>
    <g
       transform="matrix(8.6056867,0,0,-8.6056867,261.99728,651.66385)"
       id="g62">
      <path
         id="path64"
         style="fill:#000000;fill-opacity:1;fill-rule:nonzero;stroke:none"
         d="M 0,0 -6.981,0 -11.5,-14.376 c 2.228,-0.349 4.392,-0.889 6.483,-1.588 L 0,0 Z" />
    </g>
    <g
       transform="matrix(8.6056867,0,0,-8.6056867,208.11362,823.11153)"
       id="g66">
      <path
         id="path68"
         style="fill:#00aeef;fill-opacity:1;fill-rule:nonzero;stroke:none"
         d="m 0,0 0.634,2.018 c -2.09,0.7 -4.253,1.24 -6.481,1.59 l -0.66,-2.1 C -4.273,1.185 -2.099,0.676 0,0" />
    </g>
    <g
       transform="matrix(8.6056867,0,0,-8.6056867,116.16186,924.5235)"
       id="g70">
      <path
         id="path72"
         style="fill:#1b75bc;fill-opacity:1;fill-rule:nonzero;stroke:none"
         d="m 0,0 6.982,0 3.703,11.784 C 8.586,12.461 6.412,12.969 4.178,13.293 L 0,0 Z" />
    </g>
    <g
       transform="matrix(8.6056867,0,0,-8.6056867,942.60987,897.97244)"
       id="g74">
      <path
         id="path76"
         style="fill:#ffffff;fill-opacity:1;fill-rule:nonzero;stroke:none"
         d="m 0,0 -0.026,0 -3.781,6.633 -2.096,0 0,-9.525 1.857,0 0,6.792 0.027,0 3.887,-6.792 1.989,0 0,9.525 L 0,6.633 0,0 Z m -14.314,1.87 c 0,2.667 1.512,3.33 2.587,3.33 1.075,0 2.587,-0.663 2.587,-3.33 0,-2.666 -1.512,-3.329 -2.587,-3.329 -1.075,0 -2.587,0.663 -2.587,3.329 m -1.99,0 c 0,-4.47 3.317,-5.014 4.577,-5.014 1.26,0 4.577,0.544 4.577,5.014 0,4.471 -3.317,5.015 -4.577,5.015 -1.26,0 -4.577,-0.544 -4.577,-5.015 m -1.203,4.763 -1.99,0 0,-9.525 1.99,0 0,9.525 z m -5.672,-1.684 2.879,0 0,1.684 -7.747,0 0,-1.684 2.879,0 0,-7.841 1.989,0 0,7.841 z m -8.56,-0.465 0.027,0 1.181,-3.768 -2.428,0 1.22,3.768 z m -1.751,-5.413 3.516,0 0.61,-1.963 2.163,0 -3.357,9.525 -2.295,0 -3.396,-9.525 2.096,0 0.663,1.963 z m -4.772,5.878 2.879,0 0,1.684 -7.747,0 0,-1.684 2.879,0 0,-7.841 1.989,0 0,7.841 z M -51.355,0.04 c 0,-1.181 0.597,-3.184 4.072,-3.184 0.836,0 3.755,0.252 3.755,3.118 0,1.711 -1.194,2.242 -2.494,2.56 l -2.322,0.57 c -0.398,0.093 -1.008,0.252 -1.008,0.995 0,0.863 0.902,1.141 1.658,1.141 1.738,0 1.897,-1.008 1.95,-1.432 l 1.91,0 c -0.013,1.167 -0.795,3.077 -3.714,3.077 -3.091,0 -3.662,-1.87 -3.662,-2.932 0,-2.096 1.487,-2.44 3.025,-2.799 l 1.022,-0.238 c 1.008,-0.24 1.724,-0.438 1.724,-1.181 0,-1.008 -1.048,-1.234 -1.989,-1.234 -1.738,0 -2.004,1.008 -2.017,1.539 l -1.91,0 z" />
    </g>
    <g
       transform="matrix(8.6056867,0,0,-8.6056867,956.02703,711.83397)"
       id="g78">
      <path
         id="path80"
         style="fill:#ffffff;fill-opacity:1;fill-rule:nonzero;stroke:none"
         d="m 0,0 -9.272,0 0,-12.572 9.57,0 0,2.223 -6.988,0 0,3.257 6.145,0 0,2.225 -6.145,0 0,2.643 6.69,0 L 0,0 Z m -10.209,-4.115 c -0.14,1.856 -1.668,4.448 -5.443,4.448 -3.249,0 -5.794,-2.242 -5.794,-6.637 0,-4.342 2.405,-6.601 5.759,-6.601 3.16,0 4.951,1.909 5.478,4.64 l -2.634,0 c -0.315,-1.541 -1.334,-2.363 -2.792,-2.363 -2.23,0 -3.125,2.03 -3.125,4.289 0,3.555 1.861,4.395 3.125,4.395 2.178,0 2.582,-1.418 2.792,-2.171 l 2.634,0 z m -16.79,1.278 0.035,0 1.563,-4.973 -3.213,0 1.615,4.973 z m -2.317,-7.144 4.652,0 0.809,-2.591 2.862,0 -4.443,12.572 -3.038,0 -4.495,-12.572 2.775,0 0.878,2.591 z m -9.598,4.115 0,3.695 2.089,0 c 1.633,0 2.318,-0.508 2.318,-1.734 0,-0.56 0,-1.961 -1.967,-1.961 l -2.44,0 z m 0,-2.171 3.02,0 c 3.388,0 4.021,2.871 4.021,4.01 0,2.469 -1.475,4.027 -3.916,4.027 l -5.76,0 0,-12.572 2.635,0 0,4.535 z m -14,-0.666 c 0,-1.558 0.79,-4.202 5.39,-4.202 1.107,0 4.97,0.333 4.97,4.115 0,2.258 -1.581,2.959 -3.301,3.379 l -3.073,0.753 c -0.527,0.123 -1.335,0.333 -1.335,1.314 0,1.138 1.194,1.506 2.195,1.506 2.3,0 2.511,-1.331 2.581,-1.891 l 2.529,0 c -0.018,1.54 -1.054,4.062 -4.917,4.062 -4.091,0 -4.846,-2.469 -4.846,-3.87 0,-2.767 1.966,-3.222 4.003,-3.695 l 1.352,-0.315 c 1.335,-0.315 2.283,-0.578 2.283,-1.558 0,-1.331 -1.387,-1.629 -2.634,-1.629 -2.3,0 -2.651,1.331 -2.669,2.031 l -2.528,0 z" />
    </g>
    <g
       transform="matrix(8.6056867,0,0,-8.6056867,939.00668,652.70601)"
       id="g82">
      <path
         id="path84"
         style="fill:#ffffff;fill-opacity:1;fill-rule:nonzero;stroke:none"
         d="m 0,0 -0.956,0 0,-4.578 3.232,0 0,0.829 L 0,-3.749 0,0 Z m -3.897,-1.033 0.013,0 0.567,-1.811 -1.166,0 0.586,1.811 z m -0.842,-2.601 1.69,0 0.293,-0.944 1.039,0 -1.612,4.578 -1.104,0 -1.632,-4.578 1.008,0 0.318,0.944 z m -2.951,0.446 -0.013,0 -1.818,3.188 -1.007,0 0,-4.578 0.892,0 0,3.265 0.013,0 1.869,-3.265 0.955,0 0,4.578 -0.891,0 0,-3.188 z m -7.193,0.899 c 0,1.282 0.728,1.601 1.244,1.601 0.517,0 1.244,-0.319 1.244,-1.601 0,-1.282 -0.727,-1.601 -1.244,-1.601 -0.516,0 -1.244,0.319 -1.244,1.601 m -0.955,0 c 0,-2.148 1.593,-2.41 2.199,-2.41 0.606,0 2.2,0.262 2.2,2.41 0,2.149 -1.594,2.41 -2.2,2.41 -0.606,0 -2.199,-0.261 -2.199,-2.41 M -16.729,0 l -0.955,0 0,-4.578 0.955,0 0,4.578 z m -3.035,-0.809 1.383,0 0,0.809 -3.723,0 0,-0.809 1.384,0 0,-3.769 0.956,0 0,3.769 z m -4.463,-0.224 0.012,0 0.568,-1.811 -1.167,0 0.587,1.811 z m -0.842,-2.601 1.689,0 0.294,-0.944 1.039,0 -1.613,4.578 -1.103,0 -1.632,-4.578 1.007,0 0.319,0.944 z m -2.952,0.446 -0.013,0 -1.817,3.188 -1.007,0 0,-4.578 0.891,0 0,3.265 0.014,0 1.868,-3.265 0.956,0 0,4.578 -0.892,0 0,-3.188 z m -6.644,1.173 0,1.225 1.193,0 c 0.562,0 0.671,-0.358 0.671,-0.6 0,-0.453 -0.243,-0.625 -0.741,-0.625 l -1.123,0 z m -0.936,-2.563 0.936,0 0,1.792 0.989,0 c 0.709,0 0.747,-0.242 0.747,-0.867 0,-0.472 0.038,-0.709 0.102,-0.925 l 1.057,0 0,0.121 c -0.204,0.076 -0.204,0.242 -0.204,0.912 0,0.855 -0.204,0.995 -0.579,1.16 0.452,0.153 0.707,0.587 0.707,1.091 0,0.396 -0.223,1.294 -1.44,1.294 l -2.315,0 0,-4.578 z M -36.648,0 l -3.366,0 0,-4.578 3.474,0 0,0.81 -2.538,0 0,1.186 2.232,0 0,0.809 -2.232,0 0,0.964 2.43,0 0,0.809 z m -5.487,-0.809 1.384,0 0,0.809 -3.723,0 0,-0.809 1.384,0 0,-3.769 0.955,0 0,3.769 z m -3.945,-2.379 -0.012,0 -1.819,3.188 -1.006,0 0,-4.578 0.892,0 0,3.265 0.012,0 1.869,-3.265 0.956,0 0,4.578 -0.892,0 0,-3.188 z M -49.981,0 l -0.955,0 0,-4.578 0.955,0 0,4.578 z" />
    </g>
    <g
       transform="matrix(8.6056867,0,0,-8.6056867,950.44267,994.39557)"
       id="g86">
      <path
         id="path88"
         style="fill:#ffffff;fill-opacity:1;fill-rule:nonzero;stroke:none"
         d="m 0,0 0,-2.048 0.947,0 0,4.566 -0.947,0 0,-1.73 -1.771,0 0,1.73 -0.948,0 0,-4.566 0.948,0 0,2.048 z m -4.74,1.711 1.371,0 0,0.807 -3.691,0 0,-0.807 1.372,0 0,-3.759 0.948,0 z m -5.695,-1.203 0,1.222 1.183,0 c 0.557,0 0.664,-0.356 0.664,-0.598 0,-0.452 -0.24,-0.624 -0.734,-0.624 z m -0.928,-2.556 0.928,0 0,1.787 0.981,0 c 0.702,0 0.74,-0.242 0.74,-0.865 0,-0.471 0.038,-0.707 0.101,-0.922 l 1.048,0 0,0.12 c -0.202,0.076 -0.202,0.242 -0.202,0.91 0,0.853 -0.202,0.992 -0.575,1.158 0.449,0.152 0.702,0.585 0.702,1.087 0,0.395 -0.222,1.291 -1.428,1.291 l -2.295,0 z m -2.852,3.535 0.012,0 0.563,-1.806 -1.157,0 z m -0.835,-2.594 1.675,0 0.291,-0.941 1.03,0 -1.599,4.566 -1.093,0 -1.618,-4.566 0.998,0 z m -2.012,3.625 -3.337,0 0,-4.566 3.445,0 0,0.807 -2.517,0 0,1.184 2.213,0 0,0.807 -2.213,0 0,0.961 2.409,0 z m -5.973,0 -3.337,0 0,-4.566 3.444,0 0,0.807 -2.516,0 0,1.184 2.212,0 0,0.807 -2.212,0 0,0.961 2.409,0 z M -28.368,0 l 0,-2.048 0.948,0 0,4.566 -0.948,0 0,-1.73 -1.77,0 0,1.73 -0.948,0 0,-4.566 0.948,0 0,2.048 z m -4.741,1.711 1.372,0 0,0.807 -3.69,0 0,-0.807 1.371,0 0,-3.759 0.947,0 z m -7.32,-1.203 0,1.222 1.183,0 c 0.557,0 0.664,-0.356 0.664,-0.598 0,-0.452 -0.24,-0.624 -0.734,-0.624 z m -0.928,-2.556 0.928,0 0,1.787 0.981,0 c 0.702,0 0.74,-0.242 0.74,-0.865 0,-0.471 0.038,-0.707 0.101,-0.922 l 1.048,0 0,0.12 c -0.202,0.076 -0.202,0.242 -0.202,0.91 0,0.853 -0.202,0.992 -0.575,1.158 0.449,0.152 0.702,0.585 0.702,1.087 0,0.395 -0.222,1.291 -1.429,1.291 l -2.294,0 z m -4.277,2.283 c 0,1.279 0.72,1.597 1.233,1.597 0.512,0 1.233,-0.318 1.233,-1.597 0,-1.279 -0.721,-1.597 -1.233,-1.597 -0.513,0 -1.233,0.318 -1.233,1.597 m -0.948,0 c 0,-2.144 1.58,-2.404 2.181,-2.404 0.6,0 2.18,0.26 2.18,2.404 0,2.144 -1.58,2.404 -2.18,2.404 -0.601,0 -2.181,-0.26 -2.181,-2.404 m -2.743,-0.362 1.997,0 0,0.807 -1.997,0 0,1.031 2.282,0 0,0.807 -3.229,0 0,-4.566 0.947,0 z M -55.818,0 l 0,-2.048 0.948,0 0,4.566 -0.948,0 0,-1.73 -1.771,0 0,1.73 -0.947,0 0,-4.566 0.947,0 0,2.048 z m -4.74,1.711 1.372,0 0,0.807 -3.691,0 0,-0.807 1.372,0 0,-3.759 0.947,0 z m -5.694,-1.203 0,1.222 1.183,0 c 0.556,0 0.664,-0.356 0.664,-0.598 0,-0.452 -0.241,-0.624 -0.734,-0.624 z m -0.928,-2.556 0.928,0 0,1.787 0.98,0 c 0.702,0 0.74,-0.242 0.74,-0.865 0,-0.471 0.039,-0.707 0.101,-0.922 l 1.049,0 0,0.12 c -0.202,0.076 -0.202,0.242 -0.202,0.91 0,0.853 -0.202,0.992 -0.575,1.158 0.449,0.152 0.702,0.585 0.702,1.087 0,0.395 -0.222,1.291 -1.429,1.291 l -2.294,0 z m -2.853,3.535 0.013,0 0.562,-1.806 -1.157,0 z m -0.834,-2.594 1.675,0 0.29,-0.941 1.031,0 -1.6,4.566 -1.093,0 -1.618,-4.566 0.999,0 z m -2.012,3.625 -3.337,0 0,-4.566 3.444,0 0,0.807 -2.516,0 0,1.184 2.213,0 0,0.807 -2.213,0 0,0.961 2.409,0 z m -5.974,0 -3.337,0 0,-4.566 3.444,0 0,0.807 -2.516,0 0,1.184 2.213,0 0,0.807 -2.213,0 0,0.961 2.409,0 z M -84.185,0 l 0,-2.048 0.947,0 0,4.566 -0.947,0 0,-1.73 -1.771,0 0,1.73 -0.947,0 0,-4.566 0.947,0 0,2.048 z m -4.741,1.711 1.372,0 0,0.807 -3.691,0 0,-0.807 1.372,0 0,-3.759 0.947,0 z m -6.599,-1.838 1.997,0 0,0.807 -1.997,0 0,1.031 2.282,0 0,0.807 -3.23,0 0,-4.566 0.948,0 z m -3.935,0 1.998,0 0,0.807 -1.998,0 0,1.031 2.282,0 0,0.807 -3.229,0 0,-4.566 0.947,0 z m -5.225,0.362 c 0,1.279 0.721,1.597 1.233,1.597 0.513,0 1.234,-0.318 1.234,-1.597 0,-1.279 -0.721,-1.597 -1.234,-1.597 -0.512,0 -1.233,0.318 -1.233,1.597 m -0.947,0 c 0,-2.144 1.58,-2.404 2.18,-2.404 0.601,0 2.181,0.26 2.181,2.404 0,2.144 -1.58,2.404 -2.181,2.404 -0.6,0 -2.18,-0.26 -2.18,-2.404" />
    </g>
  </g>
</svg>
